<svg xmlns="http://www.w3.org/2000/svg" width="256" height="256" viewBox="0 0 256 256" role="img" aria-label="Developer avatar">
  <defs>
    <linearGradient id="bg" x1="0" x2="1" y1="0" y2="1">
      <stop stop-color="#2a1b12"/>
      <stop offset=".52" stop-color="#6d4126"/>
      <stop offset="1" stop-color="#121926"/>
    </linearGradient>
    <linearGradient id="skin" x1="0" x2="1" y1="0" y2="1">
      <stop stop-color="#9c613f"/>
      <stop offset="1" stop-color="#5b341f"/>
    </linearGradient>
    <filter id="softShadow" x="-20%" y="-20%" width="140%" height="140%">
      <feDropShadow dx="0" dy="12" stdDeviation="10" flood-color="#000" flood-opacity=".35"/>
    </filter>
  </defs>
  <rect width="256" height="256" rx="34" fill="url(#bg)"/>
  <circle cx="128" cy="110" r="78" fill="#0e1726" opacity=".38"/>
  <g filter="url(#softShadow)">
    <path d="M55 235c5-43 34-72 73-72s68 29 73 72H55Z" fill="#101928"/>
    <path d="M82 224c8-27 25-43 46-43s38 16 46 43H82Z" fill="#1f6b5f"/>
    <circle cx="128" cy="104" r="50" fill="url(#skin)"/>
    <path d="M76 94c4-38 28-62 64-62 28 0 48 15 55 43-15-15-36-21-63-18-22 2-40 14-56 37Z" fill="#111827"/>
    <path d="M82 99c6-31 27-48 60-50 28-2 47 8 58 31-13-9-30-11-51-7-25 4-47 13-67 26Z" fill="#05070b"/>
    <rect x="79" y="101" width="98" height="20" rx="10" fill="#111827"/>
    <circle cx="105" cy="111" r="15" fill="#f8fafc"/>
    <circle cx="151" cy="111" r="15" fill="#f8fafc"/>
    <circle cx="105" cy="111" r="9" fill="#101828"/>
    <circle cx="151" cy="111" r="9" fill="#101828"/>
    <path d="M119 133c5 3 12 3 18 0" fill="none" stroke="#3b2115" stroke-width="5" stroke-linecap="round"/>
    <path d="M107 147c14 12 30 12 43 0" fill="none" stroke="#2a160f" stroke-width="6" stroke-linecap="round"/>
  </g>
  <path d="M24 26h208v204H24V26Z" fill="none" stroke="#d8b76a" stroke-width="3" opacity=".45"/>
</svg>
